<?xml version="1.0" standalone="no"?>
<!DOCTYPE svg PUBLIC "-//W3C//DTD SVG 20010904//EN"
 "http://www.w3.org/TR/2001/REC-SVG-20010904/DTD/svg10.dtd">
<svg version="1.0" xmlns="http://www.w3.org/2000/svg"
 width="1080.000000pt" height="1080.000000pt" viewBox="0 0 1080.000000 1080.000000"
 preserveAspectRatio="xMidYMid meet">
<metadata>
Created by potrace 1.14, written by Peter Selinger 2001-2017
</metadata>
<g transform="translate(0.000000,1080.000000) scale(0.100000,-0.100000)"
fill="#000000" stroke="none">
<path d="M0 5400 l0 -5400 5400 0 5400 0 0 1485 0 1485 -37 15 c-35 15 -40 15
-66 -1 -34 -19 -85 -14 -116 12 -27 24 -28 76 0 120 19 31 25 34 68 34 26 0
53 -6 59 -12 10 -10 17 -10 32 0 11 6 29 12 40 12 l20 0 0 3825 0 3825 -5400
0 -5400 0 0 -5400z m1408 2393 c2 -8 -5 -13 -17 -13 -12 0 -21 6 -21 16 0 18
31 15 38 -3z m2822 -197 c0 -3 -4 -8 -10 -11 -5 -3 -10 -1 -10 4 0 6 5 11 10
11 6 0 10 -2 10 -4z m847 -218 c-3 -8 -6 -5 -6 6 -1 11 2 17 5 13 3 -3 4 -12
1 -19z m3 -34 c0 -8 -4 -12 -10 -9 -5 3 -10 10 -10 16 0 5 5 9 10 9 6 0 10 -7
10 -16z m58 -1106 c-3 -12 -35 -48 -43 -48 -11 0 -4 24 12 42 18 20 34 24 31
6z m282 -53 c0 -8 -4 -15 -10 -15 -5 0 -10 7 -10 15 0 8 5 15 10 15 6 0 10 -7
10 -15z m5 -85 c-3 -5 -10 -10 -16 -10 -5 0 -9 5 -9 10 0 6 7 10 16 10 8 0 12
-4 9 -10z m170 0 c-3 -5 -10 -10 -16 -10 -5 0 -9 5 -9 10 0 6 7 10 16 10 8 0
12 -4 9 -10z m4165 -530 c0 -11 -7 -20 -15 -20 -8 0 -15 9 -15 20 0 11 7 20
15 20 8 0 15 -9 15 -20z m-5858 -2267 c8 -38 16 -101 17 -142 2 -62 7 -80 28
-108 32 -41 32 -95 2 -173 -12 -30 -24 -67 -26 -82 -3 -16 -9 -28 -14 -28 -5
0 -9 -11 -9 -24 0 -24 -23 -56 -41 -56 -12 0 -12 47 1 55 6 3 10 17 10 30 0
13 5 27 10 30 17 11 11 23 -15 28 -15 2 -42 -4 -63 -14 -41 -22 -92 -25 -110
-7 -9 9 -15 9 -24 0 -23 -23 -82 -14 -129 20 -48 35 -47 34 -72 68 l-17 24
-43 -46 c-48 -52 -87 -69 -146 -61 -25 4 -46 1 -55 -7 -17 -13 -61 -7 -103 15
-16 8 -43 12 -68 8 -24 -2 -52 0 -64 6 -15 8 -27 9 -40 1 -11 -5 -41 -9 -68
-9 -26 0 -76 0 -109 -1 -58 -1 -64 1 -102 37 -49 46 -61 95 -42 173 10 43 15
50 32 45 11 -4 30 1 46 11 22 15 44 18 115 16 58 -2 86 1 82 8 -9 15 7 12 32
-5 15 -11 34 -13 67 -9 25 4 46 10 46 14 0 12 50 19 56 8 4 -5 10 -5 17 0 7 5
46 9 87 8 63 -2 86 -8 139 -35 35 -18 76 -47 92 -64 27 -29 29 -30 29 -10 0
12 5 25 10 28 6 3 10 19 10 36 0 16 4 29 10 29 5 0 19 18 32 39 12 21 30 44
39 49 22 14 57 4 64 -18 5 -16 32 -30 62 -30 6 0 16 12 21 28 8 20 11 22 11 8
1 -16 4 -17 13 -8 18 18 28 15 28 -8 0 -22 34 -40 75 -40 17 0 25 7 30 28 6
23 8 24 14 9 6 -17 8 -16 19 7 10 22 9 26 -3 26 -12 0 -15 15 -15 73 0 62 4
87 15 87 1 0 9 -30 17 -67z m3079 -89 c-6 -24 -11 -60 -11 -81 0 -27 -6 -44
-21 -57 -21 -17 -21 -17 -15 21 3 21 8 66 12 101 3 34 10 65 15 68 5 3 9 18 9
33 0 15 3 31 8 35 12 13 14 -75 3 -120z m3409 -84 c25 -13 42 -29 46 -46 19
-74 -49 -138 -122 -114 -30 10 -42 9 -75 -5 -37 -17 -41 -17 -79 0 -37 17 -41
17 -64 1 -31 -20 -49 -20 -87 -1 -27 14 -32 14 -51 0 -27 -18 -81 -20 -108 -3
-16 10 -24 10 -40 0 -29 -18 -82 -14 -107 7 -13 11 -25 36 -29 59 -6 37 -3 44
25 73 30 29 35 31 79 25 67 -10 73 -10 108 4 26 11 36 11 62 -3 29 -14 35 -14
72 0 38 15 44 15 76 0 32 -16 37 -16 57 -2 26 18 50 19 92 4 25 -9 37 -9 61 4
37 21 38 21 84 -3z m-8368 -8 c17 -17 44 -15 74 5 21 13 30 14 45 5 22 -14 78
-16 111 -3 16 6 29 5 42 -5 11 -7 22 -11 26 -9 11 7 121 -14 150 -28 95 -46
119 -144 51 -207 -44 -42 -65 -47 -176 -48 -66 -1 -114 3 -122 10 -10 8 -24 8
-53 -2 -32 -10 -45 -10 -70 0 -24 10 -37 10 -56 1 -32 -14 -79 -14 -106 0 -14
8 -23 8 -31 0 -27 -27 -100 -8 -145 36 -26 25 -41 118 -26 157 3 9 26 25 50
37 24 12 41 26 38 31 -3 4 21 8 53 8 35 1 66 6 77 15 21 16 50 15 68 -3z
m6186 -15 c9 -7 25 -6 51 3 32 10 42 10 69 -4 28 -14 34 -14 76 1 38 14 50 15
66 5 24 -15 45 -15 84 -1 74 26 145 -50 116 -122 -26 -61 -82 -84 -138 -55
-24 12 -30 12 -47 0 -24 -18 -76 -18 -100 0 -17 12 -22 12 -44 -5 -27 -21 -59
-24 -94 -8 -20 9 -32 7 -62 -7 -35 -16 -41 -16 -80 -2 -26 10 -47 13 -56 7
-53 -33 -148 19 -149 82 0 83 59 131 137 111 33 -9 48 -9 75 3 33 14 72 11 96
-8z m1334 -7 c60 -75 -41 -188 -122 -138 -16 10 -24 10 -40 0 -27 -17 -86 -15
-114 3 -21 14 -24 14 -36 0 -17 -20 -93 -20 -110 0 -11 14 -15 14 -29 1 -27
-24 -67 -29 -101 -13 -29 15 -33 14 -65 -4 -37 -22 -59 -20 -99 12 -20 16 -26
29 -26 62 0 77 71 119 145 85 21 -9 31 -9 46 0 10 7 30 12 43 12 14 0 37 -5
51 -12 21 -9 31 -9 46 0 24 16 74 15 99 0 16 -10 24 -10 40 0 25 15 84 16 109
0 14 -9 23 -8 42 6 32 23 97 15 121 -14z m-2200 -11 c14 -8 23 -8 31 0 15 15
73 14 97 -1 15 -10 26 -10 53 0 43 16 62 15 95 -2 24 -12 30 -12 47 0 31 23
80 17 115 -13 30 -25 32 -30 27 -77 -3 -40 -10 -54 -33 -73 -34 -27 -84 -30
-118 -8 -20 13 -25 13 -42 0 -25 -19 -58 -19 -95 1 -28 14 -32 14 -48 0 -22
-20 -80 -20 -105 -1 -16 12 -22 12 -42 -2 -17 -11 -36 -13 -66 -9 -52 7 -61 7
-119 0 -39 -5 -50 -2 -75 19 -25 22 -29 32 -28 71 1 37 7 53 30 77 28 30 31
31 96 26 37 -3 70 -2 73 3 7 12 79 4 107 -11z m-6750 -36 c15 -3 41 -1 57 5
39 14 95 -1 116 -31 43 -62 -9 -147 -91 -147 -24 0 -44 5 -44 10 0 6 -9 10
-19 10 -11 0 -23 -4 -26 -10 -9 -14 -81 -12 -105 2 -16 10 -24 10 -40 0 -25
-15 -75 -16 -99 0 -15 9 -25 9 -46 0 -33 -15 -70 -15 -95 0 -16 10 -24 10 -40
0 -11 -6 -37 -12 -58 -12 -54 0 -92 40 -92 97 0 59 36 87 100 79 25 -4 59 -6
75 -5 17 1 49 2 73 1 72 -1 84 -1 174 1 47 1 90 6 94 10 4 4 15 5 23 2 9 -4
28 -9 43 -12z m901 6 c32 32 129 -1 156 -52 33 -61 -46 -155 -119 -142 -37 7
-166 14 -215 13 -85 -3 -109 -1 -112 9 -3 7 -19 5 -47 -5 -37 -14 -49 -14 -83
-3 -30 10 -45 10 -61 2 -39 -21 -73 -13 -108 25 -42 44 -44 81 -7 118 24 24
34 27 92 26 36 -1 82 2 101 5 23 5 49 2 72 -8 23 -10 38 -12 40 -5 2 5 36 10
76 10 40 0 84 3 100 7 15 4 44 3 65 -2 27 -7 42 -6 50 2z m5447 -104 c0 -43
-4 -75 -10 -75 -11 0 -14 133 -3 143 12 13 13 7 13 -68z m0 -154 c0 -17 -4
-33 -10 -36 -5 -3 -10 -37 -10 -76 0 -39 -4 -69 -10 -69 -14 0 -13 136 2 177
15 41 28 43 28 4z m2188 -1148 c-4 -20 -35 -30 -50 -15 -15 15 0 32 28 32 19
0 25 -5 22 -17z"/>
</g>
</svg>
